<svg xmlns="http://www.w3.org/2000/svg" xmlns:xlink="http://www.w3.org/1999/xlink" viewBox="0 0 20.84 349.25"><defs><style>.cls-1{isolation:isolate;}.cls-10,.cls-2,.cls-5{fill:#36c5f3;}.cls-3,.cls-4{mix-blend-mode:multiply;}.cls-3{fill:url(#linear-gradient);}.cls-4{fill:url(#linear-gradient-2);}.cls-5{font-size:1.76px;}.cls-10,.cls-5{font-family:Norwester-Regular, Norwester;}.cls-6{letter-spacing:0.12em;}.cls-7{letter-spacing:0.1em;}.cls-8{letter-spacing:0.11em;}.cls-9{letter-spacing:0.12em;}.cls-10{font-size:2.25px;letter-spacing:0.12em;}.cls-11{letter-spacing:0.11em;}.cls-12{letter-spacing:0.12em;}</style><linearGradient id="linear-gradient" x1="1804.54" y1="3618.41" x2="1805.63" y2="3618.41" gradientTransform="translate(-2936.36 2189.5) rotate(-90)" gradientUnits="userSpaceOnUse"><stop offset="0" stop-color="#fff"/><stop offset="1" stop-color="#833e97"/></linearGradient><linearGradient id="linear-gradient-2" x1="-3180.2" y1="2249.65" x2="-3179.11" y2="2249.65" gradientTransform="translate(2934.85 3564.78) rotate(90)" xlink:href="#linear-gradient"/></defs><title>logo1</title><g class="cls-1"><g id="Layer_1" data-name="Layer 1"><path class="cls-2" d="M682.48,383.87h.83l.64.63v-1.33h-1.59a.73.73,0,0,0-.73.73v1.74a.73.73,0,0,0,.73.73h.12Z" transform="translate(-681.63 -37.12)"/><path class="cls-2" d="M684.9,383.17h-.11v2.49H684l-.64-.63v1.34h1.59a.73.73,0,0,0,.73-.73V383.9A.73.73,0,0,0,684.9,383.17Z" transform="translate(-681.63 -37.12)"/><path class="cls-3" d="M681.63,385h.85v-1.16h-.24a.61.61,0,0,0-.61.61Z" transform="translate(-681.63 -37.12)"/><path class="cls-4" d="M685.63,384.51h-.84v1.15H685a.6.6,0,0,0,.6-.6Z" transform="translate(-681.63 -37.12)"/><text class="cls-5" transform="translate(5.11 1.5)"><tspan class="cls-6">N</tspan><tspan class="cls-7" x="1.14" y="0">J</tspan><tspan x="2.19" y="0">A</tspan><tspan class="cls-6" x="3.23" y="0">VI</tspan><tspan class="cls-7" x="5.02" y="0">K</tspan><tspan class="cls-6" x="6.14" y="0">E Sof</tspan><tspan class="cls-8" x="11.15" y="0">t</tspan><tspan class="cls-9" x="12.15" y="0">com</tspan></text><text class="cls-10" transform="translate(4.65 348.54) scale(0.67 1)">Sof<tspan class="cls-11" x="4.18" y="0">t</tspan><tspan class="cls-12" x="5.47" y="0">com</tspan></text></g></g></svg>