<svg xmlns="http://www.w3.org/2000/svg" xmlns:xlink="http://www.w3.org/1999/xlink" viewBox="0 0 4 3.2"><defs><style>.cls-1{isolation:isolate;}.cls-2{fill:#36c5f3;}.cls-3,.cls-4{mix-blend-mode:multiply;}.cls-3{fill:url(#linear-gradient);}.cls-4{fill:url(#linear-gradient-2);}</style><linearGradient id="linear-gradient" x1="1804.54" y1="3618.41" x2="1805.63" y2="3618.41" gradientTransform="translate(-2936.36 2189.5) rotate(-90)" gradientUnits="userSpaceOnUse"><stop offset="0" stop-color="#fff"/><stop offset="1" stop-color="#833e97"/></linearGradient><linearGradient id="linear-gradient-2" x1="-3180.2" y1="2249.65" x2="-3179.11" y2="2249.65" gradientTransform="translate(2934.85 3564.78) rotate(90)" xlink:href="#linear-gradient"/></defs><title>logo</title><g class="cls-1"><g id="Layer_1" data-name="Layer 1"><path class="cls-2" d="M682.48,383.87h.83l.64.63v-1.33h-1.59a.73.73,0,0,0-.73.73v1.74a.73.73,0,0,0,.73.73h.12Z" transform="translate(-681.63 -383.17)"/><path class="cls-2" d="M684.9,383.17h-.11v2.49H684l-.64-.63v1.34h1.59a.73.73,0,0,0,.73-.73V383.9A.73.73,0,0,0,684.9,383.17Z" transform="translate(-681.63 -383.17)"/><path class="cls-3" d="M681.63,385h.85v-1.16h-.24a.61.61,0,0,0-.61.61Z" transform="translate(-681.63 -383.17)"/><path class="cls-4" d="M685.63,384.51h-.84v1.15H685a.6.6,0,0,0,.6-.6Z" transform="translate(-681.63 -383.17)"/></g></g></svg>