<svg xmlns="http://www.w3.org/2000/svg" xmlns:xlink="http://www.w3.org/1999/xlink" viewBox="0 0 4.12 3.29"><defs><style>.cls-1{isolation:isolate;}.cls-2{fill:#fff;}.cls-3{fill:#36c5f3;}.cls-4,.cls-5{mix-blend-mode:multiply;}.cls-4{fill:url(#linear-gradient);}.cls-5{fill:url(#linear-gradient-2);}</style><linearGradient id="linear-gradient" x1="1804.54" y1="3618.37" x2="1805.66" y2="3618.37" gradientTransform="translate(-2936.36 2189.5) rotate(-90)" gradientUnits="userSpaceOnUse"><stop offset="0" stop-color="#fff"/><stop offset="1" stop-color="#833e97"/></linearGradient><linearGradient id="linear-gradient-2" x1="-3180.2" y1="2249.6" x2="-3179.08" y2="2249.6" gradientTransform="translate(2934.85 3564.78) rotate(90)" xlink:href="#linear-gradient"/></defs><title>logo-2</title><g class="cls-1"><g id="Layer_1" data-name="Layer 1"><path class="cls-2" d="M682.44,383.85h.86l.66.64v-1.37h-1.63a.76.76,0,0,0-.76.75v1.79a.75.75,0,0,0,.76.75h.11Z" transform="translate(-681.57 -383.12)"/><path class="cls-3" d="M684.94,383.12h-.12v2.57H684l-.66-.65v1.37h1.64a.75.75,0,0,0,.75-.75v-1.79A.76.76,0,0,0,684.94,383.12Z" transform="translate(-681.57 -383.12)"/><path class="cls-4" d="M681.57,385h.87v-1.18h-.25a.62.62,0,0,0-.62.62Z" transform="translate(-681.57 -383.12)"/><path class="cls-5" d="M685.69,384.5h-.87v1.19h.25a.62.62,0,0,0,.62-.62Z" transform="translate(-681.57 -383.12)"/></g></g></svg>